<svg xmlns="http://www.w3.org/2000/svg" xml:space="preserve" width="2000" height="236" data-id="lg_gvNSdW85upa3K6wF7S" data-version="1" viewBox="0 0 2000 236"><g data-padding="20"><g transform="translate(10 4.222)scale(.96422)"><rect width="448.088" height="169.5" x="614.655" y="-85.806" fill="none" rx="0" ry="0" transform="matrix(.89 0 0 .89 360.5 140.32)"/><path d="M946.952 106.41q14.7 0 22.55 6.41 7.84 6.4 7.84 19.48v48.69h-13.92l-3.86-9.93h-.52q-3.14 3.92-6.41 6.4-3.27 2.49-7.51 3.66-4.25 1.18-10.33 1.18-6.47 0-11.6-2.48-5.13-2.49-8.08-7.62-2.94-5.13-2.94-13.04 0-11.63 8.17-17.16 8.17-5.52 24.51-6.11l12.69-.39v-3.2q0-5.75-3.01-8.43t-8.37-2.68q-5.29 0-10.39 1.5t-10.2 3.79l-6.6-13.46q5.82-3.08 13.04-4.84 7.22-1.77 14.94-1.77m10.59 46.74v-6.01l-7.72.26q-9.67.26-13.43 3.46t-3.76 8.43q0 4.58 2.68 6.51 2.68 1.92 7 1.92 6.4 0 10.81-3.79 4.42-3.79 4.42-10.78m81.83-46.61q11.7 0 18.83 6.38 7.12 6.37 7.12 20.42v47.65h-19.94v-42.68q0-7.84-2.84-11.83t-8.92-3.99q-9.15 0-12.49 6.21-3.33 6.21-3.33 17.91v34.38h-19.94v-73.07h15.23l2.68 9.34h1.12q2.35-3.79 5.85-6.14 3.49-2.35 7.77-3.46 4.29-1.12 8.86-1.12m112.88 37.77q0 9.16-2.45 16.21-2.45 7.06-7.12 11.93-4.68 4.87-11.24 7.36-6.57 2.48-14.81 2.48-7.71 0-14.15-2.48-6.44-2.49-11.18-7.36t-7.32-11.93q-2.58-7.05-2.58-16.21 0-12.15 4.31-20.59 4.32-8.43 12.29-12.81 7.98-4.38 19.02-4.38 10.27 0 18.21 4.38t12.48 12.81q4.54 8.44 4.54 20.59m-50.52 0q0 7.19 1.57 12.1 1.57 4.9 4.9 7.38 3.33 2.49 8.69 2.49 5.3 0 8.6-2.49 3.3-2.48 4.83-7.38 1.54-4.91 1.54-12.1 0-7.25-1.54-12.06-1.53-4.8-4.87-7.22-3.33-2.42-8.69-2.42-7.91 0-11.47 5.43-3.56 5.42-3.56 16.27m108.5-37.77q11.7 0 18.83 6.38 7.12 6.37 7.12 20.42v47.65h-19.93v-42.68q0-7.84-2.85-11.83-2.84-3.99-8.92-3.99-9.15 0-12.48 6.21-3.34 6.21-3.34 17.91v34.38h-19.93v-73.07h15.23l2.68 9.34h1.11q2.35-3.79 5.85-6.14 3.49-2.35 7.78-3.46 4.28-1.12 8.85-1.12m46.48 1.37h19.93v73.07h-19.93Zm10-28.63q4.44 0 7.64 2.06 3.21 2.06 3.21 7.68 0 5.55-3.21 7.68-3.2 2.12-7.64 2.12-4.51 0-7.68-2.12-3.17-2.13-3.17-7.68 0-5.62 3.17-7.68t7.68-2.06"/><rect width="196.166" height="265.55" x="740.616" y="-133.831" fill="none" rx="0" ry="0" transform="matrix(.89 0 0 .89 87.98 118.94)"/><path fill="#2ecc40" d="M901.172 108.37q0 16.7-3.94 30.57-3.94 13.88-12.14 24.01-8.19 10.14-20.78 15.88l36.04 40.24h-40.65l-27.45-33.59h-2.35q-18.33 0-31.75-5.48-13.41-5.47-22.17-15.71-8.75-10.24-13.05-24.48-4.3-14.23-4.3-31.64 0-23.25 7.63-40.5 7.62-17.26 23.5-26.78 15.87-9.52 40.34-9.52 24.38 0 40.09 9.52 15.72 9.52 23.35 26.83t7.63 40.65m-109.26 0q0 15.67 3.94 26.99 3.94 11.31 12.34 17.41 8.4 6.09 21.71 6.09 13.52 0 21.91-6.09 8.4-6.1 12.24-17.41 3.84-11.32 3.84-26.99 0-23.55-8.81-37.07-8.8-13.51-28.98-13.51-13.41 0-21.86 6.09t-12.39 17.41q-3.94 11.31-3.94 27.08"/></g><path fill="transparent" stroke="transparent" d="M720.5 0h559v236h-559z"/></g></svg>